<svg width="24" height="24" viewBox="0 0 24 24" fill="none" xmlns="http://www.w3.org/2000/svg">
<path d="M20.6684 13.1433C20.7151 12.77 20.7501 12.3966 20.7501 12C20.7501 11.6033 20.7151 11.23 20.6684 10.8566L23.1301 8.93165C23.3517 8.75665 23.4101 8.44165 23.2701 8.18498L20.9367 4.14831C20.7967 3.89165 20.4817 3.79831 20.2251 3.89165L17.3201 5.05831C16.7134 4.59165 16.0601 4.20665 15.3484 3.91498L14.9051 0.823313C14.8701 0.543313 14.6251 0.333313 14.3334 0.333313H9.66672C9.37506 0.333313 9.13006 0.543313 9.09506 0.823313L8.65172 3.91498C7.94006 4.20665 7.28672 4.60331 6.68006 5.05831L3.77506 3.89165C3.50672 3.78665 3.20339 3.89165 3.06339 4.14831L0.730057 8.18498C0.57839 8.44165 0.64839 8.75665 0.870057 8.93165L3.33172 10.8566C3.28506 11.23 3.25006 11.615 3.25006 12C3.25006 12.385 3.28506 12.77 3.33172 13.1433L0.870057 15.0683C0.64839 15.2433 0.590057 15.5583 0.730057 15.815L3.06339 19.8516C3.20339 20.1083 3.51839 20.2016 3.77506 20.1083L6.68006 18.9416C7.28672 19.4083 7.94006 19.7933 8.65172 20.085L9.09506 23.1766C9.13006 23.4566 9.37506 23.6666 9.66672 23.6666H14.3334C14.6251 23.6666 14.8701 23.4566 14.9051 23.1766L15.3484 20.085C16.0601 19.7933 16.7134 19.3966 17.3201 18.9416L20.2251 20.1083C20.4934 20.2133 20.7967 20.1083 20.9367 19.8516L23.2701 15.815C23.4101 15.5583 23.3517 15.2433 23.1301 15.0683L20.6684 13.1433ZM12.0001 16.0833C9.74839 16.0833 7.91672 14.2516 7.91672 12C7.91672 9.74831 9.74839 7.91665 12.0001 7.91665C14.2517 7.91665 16.0834 9.74831 16.0834 12C16.0834 14.2516 14.2517 16.0833 12.0001 16.0833Z" fill="#A3A3A6"/>
</svg>
