<svg width="24" height="18" viewBox="0 0 24 18" fill="none" xmlns="http://www.w3.org/2000/svg">
<path d="M17.25 8.99998C18.86 8.99998 20.155 7.69331 20.155 6.08331C20.155 4.47331 18.86 3.16665 17.25 3.16665C15.64 3.16665 14.3334 4.47331 14.3334 6.08331C14.3334 7.69331 15.64 8.99998 17.25 8.99998ZM8.50004 7.83331C10.4367 7.83331 11.9884 6.26998 11.9884 4.33331C11.9884 2.39665 10.4367 0.833313 8.50004 0.833313C6.56337 0.833313 5.00004 2.39665 5.00004 4.33331C5.00004 6.26998 6.56337 7.83331 8.50004 7.83331ZM17.25 11.3333C15.115 11.3333 10.8334 12.4066 10.8334 14.5416V16C10.8334 16.6416 11.3584 17.1666 12 17.1666H22.5C23.1417 17.1666 23.6667 16.6416 23.6667 16V14.5416C23.6667 12.4066 19.385 11.3333 17.25 11.3333ZM8.50004 10.1666C5.78171 10.1666 0.333374 11.5316 0.333374 14.25V16C0.333374 16.6416 0.858374 17.1666 1.50004 17.1666H8.50004V14.5416C8.50004 13.55 8.88504 11.8116 11.265 10.4933C10.25 10.2833 9.27004 10.1666 8.50004 10.1666Z" fill="#A3A3A6"/>
</svg>
