<svg width="21" height="16" viewBox="0 0 21 16" fill="none" xmlns="http://www.w3.org/2000/svg">
<path d="M1.83329 7.83333H5.33329C5.97496 7.83333 6.49996 7.30833 6.49996 6.66667V2C6.49996 1.35833 5.97496 0.833332 5.33329 0.833332H1.83329C1.19163 0.833332 0.666626 1.35833 0.666626 2V6.66667C0.666626 7.30833 1.19163 7.83333 1.83329 7.83333ZM1.83329 16H5.33329C5.97496 16 6.49996 15.475 6.49996 14.8333V10.1667C6.49996 9.525 5.97496 9 5.33329 9H1.83329C1.19163 9 0.666626 9.525 0.666626 10.1667V14.8333C0.666626 15.475 1.19163 16 1.83329 16ZM8.83329 16H12.3333C12.975 16 13.5 15.475 13.5 14.8333V10.1667C13.5 9.525 12.975 9 12.3333 9H8.83329C8.19163 9 7.66663 9.525 7.66663 10.1667V14.8333C7.66663 15.475 8.19163 16 8.83329 16ZM15.8333 16H19.3333C19.975 16 20.5 15.475 20.5 14.8333V10.1667C20.5 9.525 19.975 9 19.3333 9H15.8333C15.1916 9 14.6666 9.525 14.6666 10.1667V14.8333C14.6666 15.475 15.1916 16 15.8333 16ZM8.83329 7.83333H12.3333C12.975 7.83333 13.5 7.30833 13.5 6.66667V2C13.5 1.35833 12.975 0.833332 12.3333 0.833332H8.83329C8.19163 0.833332 7.66663 1.35833 7.66663 2V6.66667C7.66663 7.30833 8.19163 7.83333 8.83329 7.83333ZM14.6666 2V6.66667C14.6666 7.30833 15.1916 7.83333 15.8333 7.83333H19.3333C19.975 7.83333 20.5 7.30833 20.5 6.66667V2C20.5 1.35833 19.975 0.833332 19.3333 0.833332H15.8333C15.1916 0.833332 14.6666 1.35833 14.6666 2Z" fill="#A3A3A6"/>
</svg>
